<?xml version="1.0" encoding="utf-8"?><svg xmlns="http://www.w3.org/2000/svg" xmlns:xlink="http://www.w3.org/1999/xlink"><symbol viewBox="0 0 24 24" id="done" xmlns="http://www.w3.org/2000/svg"><path fill="none" d="M0 0h24v24H0z"/><path d="M9 16.2L4.8 12l-1.4 1.4L9 19 21 7l-1.4-1.4L9 16.2z"/></symbol><symbol viewBox="0 0 24 24" id="error" xmlns="http://www.w3.org/2000/svg"><path d="M0 0h24v24H0z" fill="none"/><path d="M12 2C6.48 2 2 6.48 2 12s4.48 10 10 10 10-4.48 10-10S17.52 2 12 2zm1 15h-2v-2h2v2zm0-4h-2V7h2v6z"/></symbol><symbol viewBox="0 0 512.002 512.002" id="facebook" xmlns="http://www.w3.org/2000/svg"><circle cx="256.001" cy="256" r="256" fill="#4e598f"/><path d="M511.596 241.7L391.019 121.085c-1.998.605-6.982-1.714-9.173-1.274-51.717 8.62-101.71 0-151.704 13.791-24.135 6.896-25.859 36.202-34.478 55.165-12.067 34.478-10.343 72.404-25.859 105.158-10.343 22.411-34.478 36.202-43.098 62.061-2.875 10.785-2.705 24.379-5.956 34.69l120.98 120.922c4.725.26 9.48.403 14.269.403 141.384 0 256-114.616 256-256 .001-4.8-.142-9.567-.404-14.301z" fill="#364270"/><g fill="#fff"><path d="M363.043 109.466H148.958c-21.809 0-39.49 17.68-39.49 39.49v214.085c0 21.811 17.68 39.49 39.49 39.49h105.584l.183-104.722h-27.21a6.418 6.418 0 0 1-6.418-6.396l-.133-33.759a6.422 6.422 0 0 1 6.42-6.444h27.162v-32.618c0-37.852 23.118-58.463 56.884-58.463h27.71a6.421 6.421 0 0 1 6.42 6.42v28.463a6.419 6.419 0 0 1-6.416 6.42l-17.006.01c-18.363 0-21.921 8.725-21.921 21.533v28.239h40.351c3.848 0 6.83 3.358 6.375 7.173l-4.001 33.759a6.418 6.418 0 0 1-6.375 5.665h-36.168l-.183 104.726h62.826c21.809 0 39.49-17.682 39.49-39.491v-214.09c.001-21.809-17.68-39.49-39.489-39.49z"/><path d="M254.542 402.53l.183-104.722h-.448V402.53z"/></g><path d="M363.043 109.466H254.277v141.741h.269V218.59c0-37.852 23.118-58.463 56.884-58.463h27.71a6.421 6.421 0 0 1 6.42 6.42v28.463a6.419 6.419 0 0 1-6.416 6.42l-17.006.01c-18.363 0-21.921 8.725-21.921 21.533v28.238h40.351c3.848 0 6.83 3.358 6.375 7.173l-4.001 33.759a6.418 6.418 0 0 1-6.375 5.665h-36.168l-.183 104.726h62.826c21.809 0 39.49-17.682 39.49-39.491V148.956c.001-21.809-17.68-39.49-39.489-39.49z" fill="#d1d1d1"/></symbol><symbol viewBox="0 0 24 24" id="mail" xmlns="http://www.w3.org/2000/svg"><path fill="none" d="M0 0h24v24H0z"/><path d="M20 4H4c-1.1 0-1.99.9-1.99 2L2 18c0 1.1.9 2 2 2h16c1.1 0 2-.9 2-2V6c0-1.1-.9-2-2-2zm0 14H4V8l8 5 8-5v10zm-8-7L4 6h16l-8 5z"/></symbol><symbol viewBox="0 0 24 24" id="menu" xmlns="http://www.w3.org/2000/svg"><path d="M0 0h24v24H0z" fill="none"/><path d="M3 18h18v-2H3v2zm0-5h18v-2H3v2zm0-7v2h18V6H3z"/></symbol><symbol viewBox="0 0 24 24" id="search" xmlns="http://www.w3.org/2000/svg"><path d="M15.5 14h-.79l-.28-.27A6.471 6.471 0 0 0 16 9.5 6.5 6.5 0 1 0 9.5 16c1.61 0 3.09-.59 4.23-1.57l.27.28v.79l5 4.99L20.49 19l-4.99-5zm-6 0C7.01 14 5 11.99 5 9.5S7.01 5 9.5 5 14 7.01 14 9.5 11.99 14 9.5 14z"/><path d="M0 0h24v24H0z" fill="none"/></symbol><symbol viewBox="0 0 310 310" id="share-facebook" xmlns="http://www.w3.org/2000/svg"><path d="M81.703 165.106h33.981V305a5 5 0 0 0 5 5H178.3a5 5 0 0 0 5-5V165.765h39.064a5 5 0 0 0 4.967-4.429l5.933-51.502a5 5 0 0 0-4.966-5.572h-44.996V71.978c0-9.732 5.24-14.667 15.576-14.667h29.42a5 5 0 0 0 5-5V5.037a5 5 0 0 0-5-5h-40.545A39.746 39.746 0 0 0 185.896 0c-7.035 0-31.488 1.381-50.804 19.151-21.402 19.692-18.427 43.27-17.716 47.358v37.752H81.703a5 5 0 0 0-5 5v50.844a5 5 0 0 0 5 5.001z"/></symbol><symbol viewBox="0 0 512.002 512.002" id="share-twitter" xmlns="http://www.w3.org/2000/svg"><path d="M512.002 97.211c-18.84 8.354-39.082 14.001-60.33 16.54 21.686-13 38.342-33.585 46.186-58.115a210.29 210.29 0 0 1-66.705 25.49c-19.16-20.415-46.461-33.17-76.674-33.17-58.011 0-105.042 47.029-105.042 105.039 0 8.233.929 16.25 2.72 23.939-87.3-4.382-164.701-46.2-216.509-109.753-9.042 15.514-14.223 33.558-14.223 52.809 0 36.444 18.544 68.596 46.73 87.433a104.614 104.614 0 0 1-47.577-13.139c-.01.438-.01.878-.01 1.321 0 50.894 36.209 93.348 84.261 103a105.245 105.245 0 0 1-27.674 3.687c-6.769 0-13.349-.66-19.764-1.888 13.368 41.73 52.16 72.104 98.126 72.949-35.95 28.176-81.243 44.967-130.458 44.967-8.479 0-16.84-.496-25.058-1.471 46.486 29.807 101.701 47.197 161.021 47.197 193.211 0 298.868-160.062 298.868-298.872 0-4.554-.104-9.084-.305-13.59 20.526-14.809 38.335-33.309 52.417-54.373z"/></symbol><symbol viewBox="0 0 512 512" id="twitter" xmlns="http://www.w3.org/2000/svg"><circle cx="256" cy="256" r="256" fill="#65a2d9"/><path d="M393.014 139.326c-26.703 23.169-53.253 43.475-74.954 71.852-53.381 64.372-118.613 155.7-207.386 142.086l158.61 158.396c134.456-6.873 241.497-117.493 242.686-253.376L393.014 139.326z" fill="#3a7ca5"/><path d="M397.872 162.471a115.847 115.847 0 0 1-20.208 6.815 62.977 62.977 0 0 0 16.631-26.484c.926-2.893-2.219-5.398-4.832-3.848a116.572 116.572 0 0 1-30.894 12.762c-.628.16-1.276.24-1.929.24a8.195 8.195 0 0 1-5.411-2.065 63.176 63.176 0 0 0-41.805-15.777c-6.672 0-13.405 1.04-20.016 3.091-20.487 6.353-36.295 23.254-41.257 44.103-1.86 7.818-2.362 15.648-1.496 23.264a2.268 2.268 0 0 1-.569 1.772 2.35 2.35 0 0 1-1.969.781c-44.846-4.168-85.287-25.772-113.869-60.837-1.455-1.789-4.253-1.569-5.415.422-5.596 9.606-8.554 20.589-8.554 31.766a63.123 63.123 0 0 0 18.837 45.039 56.639 56.639 0 0 1-14.414-5.582c-2.188-1.214-4.877.35-4.908 2.851-.31 25.445 14.588 48.087 36.905 58.282a56.578 56.578 0 0 1-11.995-1.001c-2.463-.467-4.532 1.867-3.768 4.253 7.246 22.618 26.717 39.288 50.021 43.07-19.339 12.983-41.863 19.83-65.302 19.83l-7.306-.003c-2.255 0-4.16 1.469-4.73 3.65-.565 2.145.474 4.413 2.396 5.53 26.412 15.372 56.541 23.495 87.138 23.495 26.784 0 51.838-5.313 74.466-15.798 20.745-9.609 39.076-23.345 54.486-40.827 14.357-16.286 25.581-35.085 33.365-55.879 7.418-19.816 11.34-40.967 11.34-61.154v-.964c0-3.241 1.465-6.291 4.024-8.37a124.916 124.916 0 0 0 25.122-27.572c1.84-2.748-1.06-6.196-4.084-4.855z" fill="#fff"/><path d="M397.872 162.471a115.904 115.904 0 0 1-20.208 6.815 62.989 62.989 0 0 0 16.632-26.484c.926-2.893-2.219-5.398-4.832-3.848a116.572 116.572 0 0 1-30.894 12.762c-.628.16-1.276.24-1.929.24a8.195 8.195 0 0 1-5.411-2.065 63.176 63.176 0 0 0-41.805-15.777c-6.671 0-13.405 1.04-20.016 3.091-14.322 4.441-26.343 14.048-33.985 26.546v205.477a164.729 164.729 0 0 0 18.198-7.139c20.745-9.609 39.076-23.345 54.486-40.827 14.357-16.287 25.581-35.085 33.365-55.879 7.418-19.816 11.34-40.967 11.34-61.154v-.964c0-3.241 1.465-6.291 4.024-8.37a124.916 124.916 0 0 0 25.122-27.572c1.837-2.745-1.063-6.193-4.087-4.852z" fill="#d1d1d1"/></symbol><symbol viewBox="0 0 512 512" id="youtube" xmlns="http://www.w3.org/2000/svg"><circle cx="256" cy="256" r="256" fill="#d22215"/><path d="M384.857 170.339c-7.677 2.343-15.682 4.356-23.699 6.361-56.889 12.067-132.741-20.687-165.495 32.754-27.317 42.494-35.942 95.668-67.017 133.663L294.629 509.1c110.47-16.72 197.773-104.036 214.476-214.511l-124.248-124.25z" fill="#a81411"/><path d="M341.649 152.333H170.351c-33.608 0-60.852 27.245-60.852 60.852v85.632c0 33.608 27.245 60.852 60.852 60.852h171.298c33.608 0 60.852-27.245 60.852-60.852v-85.632c0-33.607-27.245-60.852-60.852-60.852zm-41.155 107.834l-80.12 38.212c-2.136 1.019-4.603-.536-4.603-2.901v-78.814c0-2.4 2.532-3.955 4.67-2.87l80.12 40.601c2.386 1.207 2.343 4.624-.067 5.772z" fill="#fff"/><path d="M341.649 152.333h-87.373v78.605l46.287 23.455c2.384 1.208 2.341 4.624-.069 5.773l-46.218 22.044v77.459h87.373c33.608 0 60.852-27.245 60.852-60.852v-85.632c0-33.607-27.245-60.852-60.852-60.852z" fill="#d1d1d1"/></symbol></svg>